<?xml version="1.0" encoding="UTF-8" standalone="no"?>
<svg
   xmlns:dc="http://purl.org/dc/elements/1.1/"
   xmlns:cc="http://creativecommons.org/ns#"
   xmlns:rdf="http://www.w3.org/1999/02/22-rdf-syntax-ns#"
   xmlns:svg="http://www.w3.org/2000/svg"
   xmlns="http://www.w3.org/2000/svg"
   xmlns:xlink="http://www.w3.org/1999/xlink"
   id="svg2"
   height="45"
   width="27"
   version="1.0">
  <metadata
     id="metadata154">
    <rdf:RDF>
      <cc:Work
         rdf:about="">
        <dc:format>image/svg+xml</dc:format>
        <dc:type
           rdf:resource="http://purl.org/dc/dcmitype/StillImage" />
      </cc:Work>
    </rdf:RDF>
  </metadata>
  <defs
     id="defs4">
    <linearGradient
       id="lg1">
      <stop
         offset="0"
         style="stop-color:#ffffff;stop-opacity:1"
         id="stop5" />
      <stop
         offset="1"
         style="stop-color:#ffffff;stop-opacity:0"
         id="stop7" />
    </linearGradient>
    <linearGradient
       id="lg2">
      <stop
         id="stop6"
         offset="0"
         style="stop-color:#eeeeec;stop-opacity:1" />
      <stop
         id="stop8"
         offset="1"
         style="stop-color:#eeeeec;stop-opacity:0" />
    </linearGradient>
    <linearGradient
       id="lg3">
      <stop
         id="stop11"
         offset="0"
         style="stop-color:#000000;stop-opacity:1" />
      <stop
         id="stop13"
         offset="1"
         style="stop-color:#000000;stop-opacity:0" />
    </linearGradient>
    <linearGradient
       id="lg4">
      <stop
         id="stop16"
         offset="0"
         style="stop-color:#cc0000;stop-opacity:1" />
      <stop
         id="stop18"
         offset="1"
         style="stop-color:#ff9494;stop-opacity:1" />
    </linearGradient>
    <linearGradient
       id="lg5">
      <stop
         id="stop21"
         offset="0"
         style="stop-color:#a40000;stop-opacity:1" />
      <stop
         id="stop23"
         offset="0.62"
         style="stop-color:#ff6767;stop-opacity:1" />
      <stop
         id="stop25"
         offset="1"
         style="stop-color:#cc0000;stop-opacity:1" />
    </linearGradient>
    <linearGradient
       id="lg6">
      <stop
         id="stop28"
         offset="0"
         style="stop-color:#ff7171;stop-opacity:1" />
      <stop
         id="stop30"
         offset="1"
         style="stop-color:#cc0000;stop-opacity:1" />
    </linearGradient>
    <linearGradient
       id="lg7">
      <stop
         id="stop33"
         offset="0"
         style="stop-color:#ffffff;stop-opacity:1" />
      <stop
         id="stop35"
         offset="1"
         style="stop-color:#ffffff;stop-opacity:0" />
    </linearGradient>
    <linearGradient
       id="lg8">
      <stop
         id="stop38"
         offset="0"
         style="stop-color:#f24e4e;stop-opacity:1" />
      <stop
         id="stop40"
         offset="1"
         style="stop-color:#c10000;stop-opacity:1" />
    </linearGradient>
    <linearGradient
       gradientTransform="matrix(0.5,0,0,0.833,16.75,0.75000011)"
       gradientUnits="userSpaceOnUse"
       xlink:href="#lg7"
       id="lg9"
       y2="27.780001"
       x2="15.5"
       y1="24.5"
       x1="0.016000001" />
    <linearGradient
       gradientTransform="matrix(1.333,0,0,2.088,-16.5,7.0000001)"
       gradientUnits="userSpaceOnUse"
       xlink:href="#lg8"
       id="lg10"
       y2="10.433"
       x2="30"
       y1="7.9000001"
       x1="30" />
    <linearGradient
       gradientTransform="matrix(0.5,0,0,0.833,-3.252,0.75000011)"
       gradientUnits="userSpaceOnUse"
       xlink:href="#lg7"
       id="lg11"
       y2="31"
       x2="15.5"
       y1="30.299999"
       x1="6.5" />
    <linearGradient
       gradientTransform="matrix(1.333,0,0,2.088,-36.5,7.0000001)"
       gradientUnits="userSpaceOnUse"
       xlink:href="#lg8"
       id="lg12"
       y2="10.433"
       x2="30"
       y1="7.9000001"
       x1="30" />
    <linearGradient
       gradientTransform="matrix(1.25,0,0,1.25,12.25,51.5)"
       gradientUnits="userSpaceOnUse"
       xlink:href="#lg7"
       id="lg13"
       y2="-16"
       x2="4.3000002"
       y1="-26.950001"
       x1="-6.5999999" />
    <linearGradient
       gradientTransform="matrix(1.2,0,0,1.2,12.3,50.5)"
       gradientUnits="userSpaceOnUse"
       xlink:href="#lg6"
       id="lg14"
       y2="-15.62"
       x2="1"
       y1="-24.136999"
       x1="-1.277" />
    <linearGradient
       gradientTransform="matrix(1.277,0,0,1,-6.78,-4.2999999)"
       gradientUnits="userSpaceOnUse"
       xlink:href="#lg7"
       id="lg15"
       y2="25"
       x2="17"
       y1="25"
       x1="22" />
    <linearGradient
       gradientTransform="matrix(1.5,0,0,1.14,-11,-5.6999999)"
       gradientUnits="userSpaceOnUse"
       xlink:href="#lg2"
       id="lg16"
       y2="29"
       x2="18"
       y1="29"
       x1="22" />
    <linearGradient
       gradientTransform="matrix(1.277,0,0,1.135,-10.77,-4.8699999)"
       gradientUnits="userSpaceOnUse"
       xlink:href="#lg7"
       id="lg17"
       y2="25"
       x2="17"
       y1="25"
       x1="22" />
    <linearGradient
       gradientTransform="matrix(1.5,0,0,1.14,-15,-6.2999999)"
       gradientUnits="userSpaceOnUse"
       xlink:href="#lg2"
       id="lg18"
       y2="29"
       x2="18"
       y1="29"
       x1="22" />
    <linearGradient
       gradientTransform="matrix(1.277,0,0,1,-14.77,-4.2999999)"
       gradientUnits="userSpaceOnUse"
       xlink:href="#lg7"
       id="lg19"
       y2="25"
       x2="17"
       y1="25"
       x1="22" />
    <linearGradient
       gradientTransform="matrix(1.5,0,0,1.14,-19,-5.7899999)"
       gradientUnits="userSpaceOnUse"
       xlink:href="#lg2"
       id="lg20"
       y2="29"
       x2="18"
       y1="29"
       x1="22" />
    <linearGradient
       gradientTransform="matrix(0.19,0,0,0.122,8.8,2.4000001)"
       gradientUnits="userSpaceOnUse"
       xlink:href="#lg7"
       id="lg21"
       y2="16.375"
       x2="46.330002"
       y1="16.375"
       x1="18.25" />
    <linearGradient
       gradientTransform="matrix(0.194,0,0,0.213,8.8,1.0000001)"
       gradientUnits="userSpaceOnUse"
       xlink:href="#lg5"
       id="lg22"
       y2="11.686"
       x2="5.25"
       y1="11.686"
       x1="43.299999" />
    <linearGradient
       gradientTransform="matrix(0.534,0,0,0.355,1.5,1.0000001)"
       gradientUnits="userSpaceOnUse"
       xlink:href="#lg6"
       id="lg3927"
       y2="22.639999"
       x2="36.060001"
       y1="22.639999"
       x1="19.5" />
    <linearGradient
       gradientTransform="matrix(0.928,0,0,0.906,-8.76,-0.59999989)"
       gradientUnits="userSpaceOnUse"
       xlink:href="#lg7"
       id="lg3929"
       y2="9.5"
       x2="32"
       y1="9.5"
       x1="16" />
    <linearGradient
       gradientTransform="matrix(0.54,0,0,0.359,1.4,1.0000001)"
       gradientUnits="userSpaceOnUse"
       xlink:href="#lg6"
       id="lg3932"
       y2="22.639999"
       x2="36.060001"
       y1="22.639999"
       x1="19.5" />
    <radialGradient
       gradientTransform="matrix(1.123,-0.149,-0.007,0.24,-9.194,11.95)"
       gradientUnits="userSpaceOnUse"
       xlink:href="#lg7"
       id="radialGradient3935"
       fy="24.538"
       fx="17.591999"
       r="15.45"
       cy="27.858"
       cx="18" />
    <linearGradient
       gradientTransform="matrix(0.62,0,0,0.843,-1.4,1.1800001)"
       gradientUnits="userSpaceOnUse"
       xlink:href="#lg7"
       id="lg3938"
       y2="16.375"
       x2="46.330002"
       y1="16.375"
       x1="18.25" />
    <linearGradient
       gradientTransform="matrix(0.613,0,0,0.75,-1.2,2.1300001)"
       gradientUnits="userSpaceOnUse"
       xlink:href="#lg4"
       id="lg3941"
       y2="1.8279999"
       x2="21"
       y1="17"
       x1="29.731001" />
    <linearGradient
       gradientTransform="matrix(0.65,0,0,0.867,-2,0.86000011)"
       gradientUnits="userSpaceOnUse"
       xlink:href="#lg5"
       id="lg3944"
       y2="11.686"
       x2="5.25"
       y1="11.686"
       x1="43.299999" />
    <radialGradient
       gradientTransform="matrix(0.7,0,0,0.214,-2.786,14)"
       gradientUnits="userSpaceOnUse"
       xlink:href="#lg3"
       id="radialGradient3947"
       fy="18.467501"
       fx="24"
       r="14"
       cy="18.467501"
       cx="24" />
    <linearGradient
       gradientTransform="matrix(0.5,0,0,0.75,1.068,3.0000001)"
       gradientUnits="userSpaceOnUse"
       xlink:href="#lg7"
       id="lg3950"
       y2="38.896"
       x2="40.25"
       y1="19.392"
       x1="5.6599998" />
    <linearGradient
       gradientTransform="matrix(0.5,0,0,0.75,0.25,3.0000001)"
       gradientUnits="userSpaceOnUse"
       xlink:href="#lg5"
       id="lg3953"
       y2="17.860001"
       x2="6.1230001"
       y1="17.860001"
       x1="45.630001" />
    <radialGradient
       gradientTransform="matrix(1.123,-0.149,-0.007,0.24,-9.194,34.95)"
       gradientUnits="userSpaceOnUse"
       xlink:href="#lg7"
       id="radialGradient3956"
       fy="24.538"
       fx="17.591999"
       r="15.45"
       cy="27.858"
       cx="18" />
    <linearGradient
       gradientTransform="matrix(0.62,0,0,0.843,-1.38,24)"
       gradientUnits="userSpaceOnUse"
       xlink:href="#lg7"
       id="lg3959"
       y2="16.375"
       x2="46.327801"
       y1="16.375"
       x1="18.25" />
    <linearGradient
       gradientTransform="matrix(0.613,0,0,0.75,-1.2,25.13)"
       gradientUnits="userSpaceOnUse"
       xlink:href="#lg4"
       id="lg3962"
       y2="1.8279999"
       x2="21"
       y1="17"
       x1="29.731001" />
    <linearGradient
       gradientTransform="matrix(0.65,0,0,0.867,-2,24)"
       gradientUnits="userSpaceOnUse"
       xlink:href="#lg5"
       id="lg3965"
       y2="11.686"
       x2="5.25"
       y1="11.686"
       x1="43.299999" />
    <radialGradient
       gradientTransform="matrix(0.7,0,0,0.214,-2.786,37)"
       gradientUnits="userSpaceOnUse"
       xlink:href="#lg3"
       id="radialGradient3968"
       fy="18.467501"
       fx="24"
       r="14"
       cy="18.467501"
       cx="24" />
    <radialGradient
       gradientTransform="matrix(0.75,0,0,0.348,-4.17,35.25)"
       gradientUnits="userSpaceOnUse"
       xlink:href="#lg3"
       id="radialGradient3971"
       fy="12.22"
       fx="23.969999"
       r="15"
       cy="12.22"
       cx="23.969999" />
    <linearGradient
       gradientTransform="translate(-10,-1.9999999)"
       gradientUnits="userSpaceOnUse"
       xlink:href="#lg1"
       id="lg3261"
       y2="6.3000002"
       x2="27.6"
       y1="6.3000002"
       x1="22.139999" />
  </defs>
  <path
     id="path75"
     style="opacity:0.9;fill:url(#radialGradient3971)"
     d="M 26,39.5 C 26,42.538 20.627,45 14,45 7.3726,45 2,42.537 2,39.5 2,36.462 7.3726,34 14,34 c 6.627,0 12,2.462 12,5.5 z" />
  <path
     id="path77"
     style="opacity:0.56000001;fill:url(#radialGradient3968)"
     d="M 12.949,38 C 9.09,38.055 5.77,38.67 4,39.559 v 2.883 C 5.85,43.37 9.409,44 13.5,44 17.6,44 21.149,43.37 23,42.4426 V 39.559 C 21.149,38.634 17.6,38 13.5,38 c -0.1873,0 -0.366,0 -0.551,0 z" />
  <path
     id="path79"
     style="fill:url(#lg3965);stroke:#a40000"
     d="M 12.481,29.5 C 7.44,29.774 3.5,32 3.5,34.689 V 37.3 c 0,2.863 4.5,5.2 10,5.2 5.5,0 10,-2.337 10,-5.2 v -2.62 c 0,-2.862 -4.5,-5.18 -10,-5.18 -0.355,0 -0.683,-0.01 -1.019,0 z" />
  <path
     id="path81"
     style="fill:url(#lg3962)"
     d="M 23,34.66 C 23,37.144 18.745,39 13.5,39 8.26,39 3.804,36.976 4,34.5 4.1,33.357 5.196,32.194 6.93,31.337 8.624,30.5 10.92,29.954 13.5,30 c 2.581,0.05 4.905,0.5125 6.609,1.389 C 21.928,32.324 23,33.578 23,34.66 Z" />
  <path
     id="path83"
     style="opacity:0.56000001;fill:none;stroke:url(#lg3959)"
     d="M 12.581,30.5 C 8.04,30.73 4.36,32.664 4.5,34.89 v 2.204 c -0.1574,2.315 4.023,4.406 8.989,4.406 4.965,0 9.239,-2.103 9.011,-4.407 V 34.89 c 0.143,-2.322 -4.045,-4.382 -9.011,-4.39 -0.311,0 -0.606,0 -0.908,0 z" />
  <path
     id="path85"
     style="fill:none;stroke:url(#radialGradient3956)"
     d="m 22.44,34 c 0.632,2.567 -3.79,4.555 -8.926,4.5 C 8.408,38.4426 3.8,36.35 4.59,34 c 0.785,-2.34 3.997,-4.5 8.924,-4.5 4.927,0 8.926,2.016 8.926,4.5 z" />
  <path
     id="path87"
     style="fill:url(#lg3953);stroke:#a40000"
     d="M 12.672,8.5000001 C 8.94,8.6800001 5.5,10.2 5.5,12.287 c 0,1.713 0,18.696 0,20.43 0,2.093 3.55,3.783 7.9828,3.783 4.4292,0 8.0172,-1.691 8.0172,-3.783 0,-1.681 0,-18.75 0,-20.43 0,-2.087 -3.588,-3.7869999 -8.0172,-3.7869999 -0.2078,0 -0.4168,0 -0.6208,0 -0.065,0 -0.125,0 -0.19,0 z" />
  <path
     id="path89"
     style="opacity:0.7;fill:none;stroke:url(#lg3950)"
     d="M 12.951,9.5000001 C 9.54,9.6200001 6.819,10.946 6.517,12.486 6.5,12.5326 6.513,32.481 6.5,32.53 6.32,34 9.752,35.5 13.485,35.5 c 3.819,0 7.165,-1.5 7.015,-2.97 0,-0.03 0,-19.93 0,-19.963 -0.1473,-1.696 -3.238,-3.0669999 -7.015,-3.0669999 -0.181,0 -0.356,-0.003 -0.534,0 z" />
  <path
     id="path91"
     style="opacity:0.5;fill:url(#radialGradient3947)"
     d="M 12.949,15 C 9.1,15.055 5.77,15.67 4,16.559 v 2.8836 C 5.85,20.37 9.409,21 13.5,21 17.6,21 21.149,20.37 23,19.4426 V 16.559 C 21.149,15.634 17.6,15 13.5,15 c -0.1873,0 -0.366,0 -0.551,0 z" />
  <path
     id="path93"
     style="fill:url(#lg3944);stroke:#a40000"
     d="M 12.481,6.5080001 C 7.44,6.7740001 3.5,9.0000001 3.5,11.689 V 14.3 c 0,2.863 4.5,5.2 10,5.2 5.5,0 10,-2.337 10,-5.2 v -2.62 c 0,-2.8619999 -4.5,-5.1719999 -10,-5.1719999 -0.355,-0.008 -0.68,-0.008 -1,0.002 z" />
  <path
     id="path95"
     style="fill:url(#lg3941)"
     d="M 23,11.66 C 23,14.144 18.745,16 13.5,16 8.26,16 3.804,13.975 4,11.5 4.1,10.357 5.196,9.1940001 6.93,8.3370001 c 1.694,-0.837 3.99,-1.383 6.57,-1.337 2.581,0.05 4.905,0.5125 6.609,1.389 C 21.928,9.3240001 23,10.578 23,11.66 Z" />
  <path
     id="path97"
     style="opacity:0.56000001;fill:none;stroke:url(#lg3938)"
     d="M 12.581,7.5000001 C 8.04,7.7300001 4.36,9.6600001 4.5,11.89 v 2.203 c -0.1574,2.316 4,4.407 8.989,4.407 4.965,0 9.239,-2.103 9.011,-4.406 V 11.89 c 0.143,-2.3219999 -4.045,-4.3819999 -9.011,-4.3899999 -0.311,0 -0.609,0 -0.908,0 z" />
  <path
     id="path99"
     style="fill:none;stroke:url(#radialGradient3935)"
     d="m 22.44,11 c 0.632,2.567 -3.79,4.556 -8.926,4.5 C 8.408,15.4426 3.8,13.35 4.589,11 5.375,8.6610001 8.587,6.5000001 13.514,6.5000001 c 4.927,0 8.926,2.016 8.926,4.4999999 z" />
  <path
     id="path101"
     style="fill:url(#lg3932);stroke:#a40000"
     d="m 13.47,2.5000001 c -0.607,0 -1.215,0.108 -1.81,0.3 -0.313,0.09 -0.599,0.2 -0.902,0.367 -0.008,0.004 -0.028,-0.004 -0.028,0 -1.468,0.733 -2.765,2.033 -3.588,3.977 0,0 -0.373,1.49 -0.555,2.583 C 6.519,10.076 6.5,10.405 6.5,10.627 c 0,1.781 3.126,2.873 7,2.873 0.5,0 0.9,0 1.4,-0.029 3.196,-0.236 5.6,-1.286 5.6,-2.844 0,-0.222 -0.02,-0.551 -0.1,-0.8999999 -0.17,-1.097 -0.54,-2.587 -0.54,-2.587 -0.824,-1.94 -2.122,-3.24 -3.59,-3.973 -0.01,-0.004 -0.02,0.003 -0.03,0 -0.3,-0.167 -0.59,-0.28 -0.91,-0.367 -0.277,-0.1 -0.58,-0.165 -0.93,-0.22 0,0 0,0 0,0.007 -0.306,-0.047 -0.616,-0.087 -0.929,-0.087 z" />
  <path
     id="path103"
     style="fill:url(#lg3927);stroke:url(#lg3929)"
     d="m 10,5.2790001 c 0,0 1.198,-1.22 1.18,-1.213 -1.24,0.604 -2.37,1.726 -3.101,3.453 -0.037,0.152 -0.333,1.367 -0.499,2.321 C 7.5,10 7.5,10.35 7.5,10.6 c 0,0.173 0.07,0.297 0.29,0.514 C 8,11.33 8.37,11.58 8.9,11.8 c 1.1,0.414 2.77,0.7 4.6,0.7 0.5,0 0.9,0 1.33,-0.028 1.5,-0.11 2.77,-0.422 3.597,-0.822 0.823,-0.4 1.073,-0.75 1.073,-1.05 0,-0.162 -0.035,-0.468 -0.1,-0.7319999 -0.1,-0.868 -0.4,-1.568 -0.48,-2.348 -0.74,-1.72 -1.92,-2.94 -3.24,-3.52 -0.08,0 1.32,1.33 1.32,1.33 -1.1,1.507 -6.108,1.53 -7,-0.05 z" />
  <path
     id="path105"
     style="fill:url(#lg22);stroke:#a40000"
     d="m 13.2,0.50200011 c -1.519,0.066 -2.7,0.61089999 -2.7,1.27099999 v 2.447 c 0,0.707 1.34,1.28 3,1.28 1.653,0 3,-0.573 3,-1.28 v -2.447 c 0,-0.703 -1.347,-1.27299999 -3,-1.27299999 -0.1,0 -0.205,0 -0.3,0.002 z" />
  <path
     id="path107"
     style="opacity:0.56000001;fill:none;stroke:url(#lg21)"
     d="m 13.2,3.5470001 c -0.549,0.015 -1.076,0.093 -1.4,0.176 -0.32,0.077 -0.3,-0.173 -0.3,-0.223 v 0.54 c 0.179,0.245 1.1,0.46 2,0.46 0.561,0 1.5,-0.124 2,-0.46 v -0.54 c 0,0.06 0,0.292 -0.373,0.207 -0.369,-0.085 -0.957,-0.159 -1.627,-0.16 -0.12,0 -0.188,-10e-4 -0.238,0 z" />
  <path
     id="path109"
     style="fill:none;stroke:#a40000"
     d="m 13.2,0.50200011 c -1.519,0.065 -2.7,0.61049999 -2.7,1.27079999 v 0.4472 c 0,0.71 1.34,1.28 3,1.28 1.653,0 3,-0.58 3,-1.278 v -0.4492 c 0,-0.7028 -1.347,-1.27279999 -3,-1.27279999 -0.1,0 -0.205,0 -0.306,0 z" />
  <path
     id="path111"
     style="opacity:0.9;fill:#cc0000"
     d="m 9.5,20.5 c 0.831,0 1.5,0.446 1.5,1 V 32 c 0,0.554 -0.669,1 -1.5,1 C 8.66,33 8,32.554 8,32 V 21.5 c 0,-0.554 0.66,-1 1.5,-1 z" />
  <path
     id="path113"
     style="fill:url(#lg20)"
     d="m 9.5,20.5 c 0.831,0 1.5,0.446 1.5,1 V 32 c 0,0.554 -0.669,1 -1.5,1 C 8.66,33 8,32.554 8,32 V 21.5 c 0,-0.554 0.66,-1 1.5,-1 z" />
  <path
     id="path115"
     style="opacity:0.4;fill:none;stroke:url(#lg19)"
     d="m 9.5,21 c 0.554,0 1,0.223 1,0.5 V 32 c 0,0.277 -0.446,0.5 -1,0.5 -0.554,0 -1,-0.223 -1,-0.5 V 21.5 c 0,-0.277 0.446,-0.5 1,-0.5 z" />
  <path
     id="path117"
     style="opacity:0.9;fill:#cc0000"
     d="m 13.5,21 c 0.831,0 1.5,0.446 1.5,1 v 11 c 0,0.554 -0.67,1 -1.5,1 C 12.66,34 12,33.554 12,33 V 22 c 0,-0.554 0.66,-1 1.5,-1 z" />
  <path
     id="path119"
     style="fill:url(#lg18)"
     d="m 13.5,21 c 0.831,0 1.5,0.446 1.5,1 v 11 c 0,0.554 -0.67,1 -1.5,1 C 12.66,34 12,33.554 12,33 V 22 c 0,-0.554 0.66,-1 1.5,-1 z" />
  <path
     id="path121"
     style="opacity:0.4;fill:none;stroke:url(#lg17)"
     d="m 13.5,21.5 c 0.554,0 1,0.223 1,0.5 v 11 c 0,0.277 -0.446,0.5 -1,0.5 -0.554,0 -1,-0.223 -1,-0.5 V 22 c 0,-0.277 0.446,-0.5 1,-0.5 z" />
  <path
     id="path123"
     style="opacity:0.9;fill:#cc0000"
     d="m 17.5,20.5 c 0.831,0 1.5,0.446 1.5,1 V 32 c 0,0.554 -0.67,1 -1.5,1 C 16.66,33 16,32.55 16,32 V 21.5 c 0,-0.554 0.66,-1 1.5,-1 z" />
  <path
     id="path125"
     style="fill:url(#lg16)"
     d="m 17.5,20.5 c 0.831,0 1.5,0.446 1.5,1 V 32 c 0,0.554 -0.67,1 -1.5,1 C 16.66,33 16,32.55 16,32 V 21.5 c 0,-0.554 0.66,-1 1.5,-1 z" />
  <path
     id="path127"
     style="opacity:0.4;fill:none;stroke:url(#lg15)"
     d="m 17.5,21 c 0.554,0 1,0.223 1,0.5 V 32 c 0,0.277 -0.446,0.5 -1,0.5 -0.554,0 -1,-0.223 -1,-0.5 V 21.5 c 0,-0.277 0.446,-0.5 1,-0.5 z" />
  <path
     id="path129"
     style="fill:url(#lg14);stroke:#a40000"
     d="m 19.5,26.5 c 0,3.314 -2.686,6 -6,6 -3.314,0 -6,-2.686 -6,-6 0,-3.314 2.686,-6 6,-6 3.314,0 6,2.686 6,6 z" />
  <path
     id="path131"
     style="fill:none;stroke:url(#lg13)"
     d="m 13.5,21.5 c -2.776,0 -5,2.224 -5,5 0,2.776 2.224,5 5,5 2.776,0 5,-2.224 5,-5 0,-2.776 -2.224,-5 -5,-5 z" />
  <path
     id="path133"
     style="fill:none;stroke:#a40000;stroke-width:0.99984896"
     d="m 13.497145,25.081635 1.414,1.414 -1.414,1.414 -1.414,-1.414 z" />
  <path
     id="path135"
     style="fill:#ff7b7b;stroke-width:0.99984896"
     d="m 13.496438,25.789342 0.707,0.707 -0.707,0.707 -0.707,-0.707 z" />
  <path
     id="path137"
     style="fill:url(#lg12);stroke:#a40000"
     d="m 3.5,18.5 c 1.108,0 2,0.607 2,1.36 v 9.28 c 0,0.753 -0.892,1.36 -2,1.36 -1.108,0 -2,-0.607 -2,-1.36 v -9.28 c 0,-0.753 0.892,-1.36 2,-1.36 z" />
  <path
     id="path139"
     style="fill:none;stroke:url(#lg11)"
     d="m 3.25,19.5 h 0.5 c 0.416,0 0.75,0.17 0.75,0.384 v 9.232 C 4.5,29.329 4.166,29.5 3.75,29.5 H 3.25 C 2.835,29.5 2.5,29.33 2.5,29.116 V 19.884 C 2.5,19.67 2.835,19.5 3.25,19.5 Z" />
  <path
     id="path141"
     style="fill:url(#lg10);stroke:#a40000"
     d="m 23.5,18.5 c 1.108,0 2,0.607 2,1.36 v 9.28 c 0,0.753 -0.892,1.36 -2,1.36 -1.108,0 -2,-0.607 -2,-1.36 v -9.28 c 0,-0.753 0.892,-1.36 2,-1.36 z" />
  <path
     id="path143"
     style="fill:none;stroke:url(#lg9)"
     d="m 23.25,19.5 h 0.5 c 0.416,0 0.75,0.17 0.75,0.384 v 9.232 c 0,0.214 -0.334,0.384 -0.75,0.384 h -0.5 c -0.415,0 -0.75,-0.17 -0.75,-0.384 v -9.232 c 0,-0.214 0.335,-0.384 0.75,-0.384 z" />
  <path
     id="path145"
     style="fill:#a40000"
     d="m 1,22 c 0.554,0 1,0.446 1,1 v 3 C 2,26.554 1.554,27 1,27 0.446,27 0,26.554 0,26 v -3 c 0,-0.554 0.446,-1 1,-1 z" />
  <path
     id="path147"
     style="fill:#a40000"
     d="m 26,22 c 0.554,0 1,0.446 1,1 v 3 c 0,0.554 -0.446,1 -1,1 -0.554,0 -1,-0.446 -1,-1 v -3 c 0,-0.554 0.446,-1 1,-1 z" />
  <path
     id="path149"
     style="opacity:0.46000001;fill:url(#lg3261)"
     d="m 11.075,1.6550001 c -0.135,0.125 -0.125,0.57 -0.005,0.69 0.95,0.919 4.22,0.865 4.87,-0.055 0.114,-0.16 0.06,-0.506 -0.04,-0.63 C 15,0.77000011 12,0.77000011 11,1.6500001 Z" />
</svg>
