<svg id="Layer_1" data-name="Layer 1" xmlns="http://www.w3.org/2000/svg" viewBox="0 0 349 349"><defs><style>.cls-1{fill:#fff;}.cls-2{fill:#010101;}</style></defs><title>ICON-francis</title><g id="Plus"><circle class="cls-1" cx="174.5" cy="174.5" r="147.23"/></g><g id="Plus-2" data-name="Plus"><path d="M174.5,0A174.5,174.5,0,1,0,349,174.5,174.5,174.5,0,0,0,174.5,0Zm0,321.73c-81.18,0-147.23-66.05-147.23-147.23S93.32,27.27,174.5,27.27s147.23,66,147.23,147.23S255.68,321.73,174.5,321.73Z"/><path class="cls-2" d="M210,97.67H186V88.19a24,24,0,1,0-16,0v9.48H146a8,8,0,0,0,0,16h24v31l-22.32,6.09A24.06,24.06,0,0,0,130,173.89v5.46a24,24,0,0,0,21.35,23.84L170,205.27v31.51l-6.59,1.88A24.24,24.24,0,0,0,146,262.14a23.68,23.68,0,0,0,15.82,22.53l8.18,3.48v17.52a8,8,0,0,0,16,0V295l4.87,2.07a8,8,0,0,0,6.26-14.72L186,277.59V248.87l14.59-4.17A24.12,24.12,0,0,0,218,221.59V216a24,24,0,0,0-21.35-23.84L186,191V156.87l30.32-8.27A24.06,24.06,0,0,0,234,125.44v-3.77A24,24,0,0,0,210,97.67Zm-32-40a8,8,0,1,1-8,8A8,8,0,0,1,178,57.67Zm-8,213.12-2.53-1.07a8.13,8.13,0,0,1-5.47-8,8,8,0,0,1,5.81-7.69l2.19-.61Zm24.88-62.72a8,8,0,0,1,7.12,8v5.6a8,8,0,0,1-5.81,7.69L186,232.2V207.05ZM170,189.18l-16.88-1.91a8,8,0,0,1-7.12-7.92v-5.46a8,8,0,0,1,5.9-7.72l18.1-4.94Zm48-63.74a8,8,0,0,1-5.9,7.72L186,140.28V113.67h24a8,8,0,0,1,8,8Z"/></g></svg>