<svg id="Layer_1" data-name="Layer 1" xmlns="http://www.w3.org/2000/svg" viewBox="0 0 349 349"><defs><style>.cls-1{fill:#fff;}.cls-2{fill:#010101;stroke:#000;stroke-miterlimit:10;stroke-width:4px;}</style></defs><title>ICON-francis</title><g id="Plus"><circle class="cls-1" cx="173.5" cy="174.5" r="147.23"/></g><g id="Plus-2" data-name="Plus"><path d="M174.5,0A174.5,174.5,0,1,0,349,174.5,174.5,174.5,0,0,0,174.5,0Zm0,321.73c-81.18,0-147.23-66.05-147.23-147.23S93.32,27.27,174.5,27.27s147.23,66,147.23,147.23S255.68,321.73,174.5,321.73Z"/></g><path class="cls-2" d="M266.67,205.84A20.69,20.69,0,1,0,240,225.67V241.3c0,19.18-14.68,35.54-33.83,36.75A36.21,36.21,0,0,1,167.68,242V212.1a52.8,52.8,0,0,0,35-19.14,53.65,53.65,0,0,0,11.76-30.59l3.93-60.5a6,6,0,0,0-5.95-6.35H197.9a14.8,14.8,0,1,0-13.25,21.42,16.7,16.7,0,0,0,10.15-3.63l.64-.49.49-.65a17.85,17.85,0,0,0,2.59-4.78h1.27a6,6,0,0,1,6,6.35l-3.15,48.54a40.93,40.93,0,0,1-81.69,0l-3.15-48.54a6,6,0,0,1,6-6.35h1.23a14.8,14.8,0,1,0,.59-11.87H111a6,6,0,0,0-6,6.35l3.92,60.5A53.71,53.71,0,0,0,120.76,193a52.75,52.75,0,0,0,35.05,19.15v29.07c0,25.64,19.77,47.37,45.37,48.76a48.11,48.11,0,0,0,50.74-48V225.67A20.74,20.74,0,0,0,266.67,205.84Z"/></svg>