<svg id="Layer_1" data-name="Layer 1" xmlns="http://www.w3.org/2000/svg" viewBox="0 0 349 349"><defs><style>.cls-1{fill:#fff;}.cls-2{fill:#39b54a;}</style></defs><title>ICON-francis</title><g id="Plus"><circle class="cls-1" cx="174.5" cy="174.5" r="147.23"/><path class="cls-2" d="M194.86,81.37H154.14A7.58,7.58,0,0,0,146.56,89v50a7.57,7.57,0,0,1-7.57,7.57H89a7.57,7.57,0,0,0-7.57,7.58v40.72A7.57,7.57,0,0,0,89,202.44h50a7.57,7.57,0,0,1,7.57,7.57v50a7.58,7.58,0,0,0,7.58,7.58h40.72a7.58,7.58,0,0,0,7.58-7.58V210a7.57,7.57,0,0,1,7.57-7.57h50a7.57,7.57,0,0,0,7.57-7.58V154.14a7.57,7.57,0,0,0-7.57-7.58H210a7.57,7.57,0,0,1-7.57-7.57V89A7.58,7.58,0,0,0,194.86,81.37Z"/><path d="M174.5,0A174.5,174.5,0,1,0,349,174.5,174.5,174.5,0,0,0,174.5,0Zm0,321.73c-81.18,0-147.23-66.05-147.23-147.23S93.32,27.27,174.5,27.27s147.23,66,147.23,147.23S255.68,321.73,174.5,321.73Z"/></g></svg>