<svg id="Layer_1" data-name="Layer 1" xmlns="http://www.w3.org/2000/svg" viewBox="0 0 349 349"><defs><style>.cls-1{fill:#fff;}.cls-2{fill:#ed1c24;}</style></defs><title>ICON-francis school</title><g id="Plus"><circle class="cls-1" cx="174.5" cy="174.5" r="169.13"/><path d="M174.5,0A174.5,174.5,0,1,0,349,174.5,174.5,174.5,0,0,0,174.5,0Zm0,328C89.88,328,21,259.11,21,174.5S89.88,21,174.5,21,328,89.88,328,174.5,259.12,328,174.5,328Z"/><circle class="cls-1" cx="173.5" cy="174.5" r="147.23"/><path class="cls-2" d="M276.58,109.56h-15V94.05A7.67,7.67,0,0,0,255,86.42a113.16,113.16,0,0,0-33.69,1c-19.79,3.6-36,12.6-46.85,26C163.63,100,147.44,91,127.65,87.43a113.55,113.55,0,0,0-33.69-1,7.66,7.66,0,0,0-6.57,7.63v15.51h-15a7.72,7.72,0,0,0-7.71,7.72V255.66A7.71,7.71,0,0,0,75,263c.55-.19,55.71-18.8,96.34-.27a7.77,7.77,0,0,0,6.4,0c40.91-18.67,95.79.07,96.34.27a7.71,7.71,0,0,0,10.25-7.29V117.28A7.72,7.72,0,0,0,276.58,109.56ZM221.35,215.8c-15.67,2.85-28.83,8.9-39.14,18V129.33c16-27,49.78-28.72,64-28.16v112.9A116.78,116.78,0,0,0,221.35,215.8Zm-54.56-86.47V233.78c-10.31-9.08-23.47-15.13-39.14-18A115,115,0,0,0,107.12,214c-1.46,0-2.9,0-4.3.08V101.15C117,100.56,150.74,102.25,166.79,129.33ZM90.07,228.25a7.72,7.72,0,0,0,6.17,1.8c.31-.05,30.76-4.33,53.91,10.54-27.9-4.37-55.56,1-70,4.76V125h7.26v97.43A7.7,7.7,0,0,0,90.07,228.25Z"/><path class="cls-2" d="M239.11,148.35a45.06,45.06,0,0,0-51.31,13.52,5.9,5.9,0,1,0,9.13,7.46,33.31,33.31,0,0,1,37.92-10,5.9,5.9,0,1,0,4.26-11Z"/><path class="cls-2" d="M239.11,120.23a45.09,45.09,0,0,0-51.31,13.52,5.88,5.88,0,0,0,.83,8.3,6,6,0,0,0,3.73,1.33,5.86,5.86,0,0,0,4.57-2.17,33.34,33.34,0,0,1,37.92-10,5.9,5.9,0,1,0,4.26-11Z"/></g></svg>