<?xml version="1.0" encoding="iso-8859-1"?>
<!-- Generator: Adobe Illustrator 19.0.0, SVG Export Plug-In . SVG Version: 6.00 Build 0)  -->
<svg version="1.1" id="Layer_1" xmlns="http://www.w3.org/2000/svg" xmlns:xlink="http://www.w3.org/1999/xlink" x="0px" y="0px"
	 viewBox="0 0 512 512" style="enable-background:new 0 0 512 512;" xml:space="preserve">
<g>
	<g>
		<path d="M457.468,410.318c-1.863,1.296-3.524,2.446-5.16,3.443v-79.393H378.91V167.184h4.978c37.45,0,67.918-30.468,67.918-67.918
			H420.46c0,20.165-16.406,36.571-36.571,36.571h-50.431V99.265h5.224c37.45,0,67.918-30.468,67.918-67.918h-31.347
			c0,16.896-11.521,31.147-27.117,35.326L317.363,0H194.905l-30.772,66.673c-15.596-4.179-27.117-18.43-27.117-35.326h-31.347
			c0,37.45,30.468,67.918,67.918,67.918h5.225v36.571H128.38c-20.166,0-36.571-16.406-36.571-36.571H60.462
			c0,37.45,30.468,67.918,67.918,67.918h4.978v167.184H15.54v31.347h405.42v48.358c-1.805-1.065-3.619-2.322-5.678-3.755
			c-8.043-5.594-19.057-13.256-38.992-13.256c-19.936,0-30.95,7.661-38.991,13.257c-6.85,4.766-10.986,7.641-21.091,7.641
			c-10.105,0-14.24-2.877-21.09-7.641c-8.043-5.595-19.056-13.257-38.991-13.257s-30.949,7.662-38.99,13.257
			c-6.849,4.766-10.984,7.641-21.088,7.641c-10.104,0-14.239-2.877-21.09-7.641c-8.04-5.595-19.054-13.257-38.989-13.257
			s-30.949,7.661-38.99,13.257c-6.851,4.765-10.986,7.641-21.091,7.641c-10.105,0-14.241-2.877-21.094-7.642
			c-8.043-5.594-19.058-13.256-38.992-13.256v31.347c10.105,0,14.241,2.877,21.094,7.642c8.043,5.594,19.058,13.256,38.992,13.256
			c19.936,0,30.95-7.661,38.991-13.257c6.85-4.766,10.985-7.641,21.09-7.641s14.239,2.877,21.09,7.641
			c8.042,5.594,19.055,13.257,38.99,13.257s30.948-7.662,38.989-13.257c6.85-4.766,10.984-7.641,21.088-7.641
			c10.104,0,14.239,2.877,21.09,7.641c8.042,5.595,19.056,13.257,38.991,13.257c19.937,0,30.95-7.661,38.991-13.257
			c6.85-4.766,10.986-7.641,21.091-7.641c10.106,0,14.241,2.877,21.092,7.641c8.043,5.594,19.057,13.257,38.992,13.257
			c19.937,0,30.951-7.661,38.992-13.257c6.851-4.766,10.987-7.641,21.093-7.641v-31.347
			C476.524,397.061,465.509,404.722,457.468,410.318z M214.963,31.347h82.342l16.879,36.571H198.083L214.963,31.347z
			 M302.109,99.265v36.571h-91.951V99.265h0H302.109z M240.46,334.367h-75.755v-104.49h75.755V334.367z M240.46,198.531h-75.755
			v-31.347h75.755V198.531z M347.562,334.367h-75.755v-104.49h75.755V334.367z M347.562,198.531h-75.755v-31.347h75.755V198.531z"/>
	</g>
</g>
<g>
	<g>
		<path d="M457.468,473.012c-6.852,4.765-10.987,7.641-21.093,7.641s-14.241-2.877-21.092-7.641
			c-8.043-5.595-19.057-13.257-38.992-13.257c-19.936,0-30.95,7.661-38.991,13.257c-6.85,4.766-10.986,7.641-21.091,7.641
			c-10.105,0-14.24-2.877-21.09-7.641c-8.043-5.595-19.056-13.257-38.991-13.257s-30.949,7.662-38.99,13.257
			c-6.849,4.766-10.984,7.641-21.088,7.641c-10.104,0-14.239-2.877-21.09-7.641c-8.04-5.595-19.054-13.257-38.989-13.257
			s-30.949,7.661-38.99,13.257c-6.851,4.765-10.986,7.641-21.091,7.641c-10.105,0-14.241-2.877-21.094-7.642
			c-8.043-5.594-19.058-13.256-38.992-13.256v31.347c10.105,0,14.241,2.877,21.094,7.642C44.936,504.339,55.951,512,75.886,512
			c19.936,0,30.95-7.661,38.991-13.257c6.85-4.766,10.985-7.641,21.09-7.641s14.239,2.877,21.09,7.641
			c8.042,5.594,19.055,13.257,38.99,13.257s30.948-7.662,38.989-13.257c6.85-4.766,10.984-7.641,21.088-7.641
			c10.104,0,14.239,2.877,21.09,7.641c8.042,5.595,19.056,13.257,38.991,13.257c19.937,0,30.95-7.661,38.991-13.257
			c6.85-4.766,10.986-7.641,21.091-7.641c10.106,0,14.241,2.877,21.092,7.641c8.043,5.594,19.057,13.257,38.992,13.257
			c19.937,0,30.951-7.661,38.992-13.257c6.851-4.766,10.987-7.641,21.093-7.641v-31.347
			C476.524,459.755,465.509,467.416,457.468,473.012z"/>
	</g>
</g>
<g>
</g>
<g>
</g>
<g>
</g>
<g>
</g>
<g>
</g>
<g>
</g>
<g>
</g>
<g>
</g>
<g>
</g>
<g>
</g>
<g>
</g>
<g>
</g>
<g>
</g>
<g>
</g>
<g>
</g>
</svg>
