<?xml version="1.0" encoding="utf-8"?>
<!-- Svg Vector Icons : http://www.onlinewebfonts.com/icon -->
<!DOCTYPE svg PUBLIC "-//W3C//DTD SVG 1.1//EN" "http://www.w3.org/Graphics/SVG/1.1/DTD/svg11.dtd">
<svg version="1.1" xmlns="http://www.w3.org/2000/svg" xmlns:xlink="http://www.w3.org/1999/xlink" x="0px" y="0px" viewBox="0 0 1000 1000" enable-background="new 0 0 1000 1000" xml:space="preserve">
<metadata> Svg Vector Icons : http://www.onlinewebfonts.com/icon </metadata>
<g><path d="M304,794c-54.1,0-97.5,43.9-97.5,98c0,54.1,43.4,98,97.5,98s98-43.9,98-98C402,837.9,358.1,794,304,794z M10,10v98h98l176.2,371.7l-66.2,120c-7.6,14.2-12,30.1-12,47.3c0,54.1,43.9,98,98,98h588v-98H324.8c-6.9,0-12.3-5.4-12.3-12.3c0-2.2,0.5-4.2,1.5-5.9l43.9-79.9H723c36.8,0,68.8-20.3,85.7-50.5l175.2-318c3.9-6.9,6.1-14.9,6.1-23.5c0-27.2-22.1-49-49-49H216.5L170,10H10L10,10z M794,794c-54.1,0-97.5,43.9-97.5,98c0,54.1,43.4,98,97.5,98c54.1,0,98-43.9,98-98C892,837.9,848.1,794,794,794z"/></g>
</svg>