<?xml version="1.0" encoding="UTF-8" standalone="no"?>
	<svg xmlns:rdf="http://www.w3.org/1999/02/22-rdf-syntax-ns#" xmlns="http://www.w3.org/2000/svg" height="501px" width="502px" xmlns:cc="http://creativecommons.org/ns#" xmlns:xlink="http://www.w3.org/1999/xlink" xmlns:dc="http://purl.org/dc/elements/1.1/">
	<title>Management/Restoration</title>
<desc xmlns:ian_image_library="http://ian.umces.edu/imagelibrary/">
      <ian_image_library:title>Management/Restoration</ian_image_library:title>
      <ian_image_library:descr>Illustration of water resource management</ian_image_library:descr>
      <ian_image_library:scene>
		<ian_image_library:contains>symbol vector illustration management water resources quality availability supply demand withdrawal use groundwater surface aquifer well extraction stream river riparian infrastructure</ian_image_library:contains>
        <ian_image_library:when>2005-02-16</ian_image_library:when> 
	  </ian_image_library:scene>
   </desc>
    <metadata
		id="metadata-iil-a023036eee985a347154368273d031ea">
      <rdf:RDF>
      <cc:Work
         rdf:about="">
        <dc:format>image/svg+xml</dc:format>
        <dc:type
           rdf:resource="http://purl.org/dc/dcmitype/StillImage" />
        <cc:license
           rdf:resource="http://creativecommons.org/licenses/by-sa/3.0/" />
        <dc:title>Management/Restoration</dc:title>
		<dc:date>2005-02-16</dc:date>
        <dc:creator>
			<cc:Agent>
				<dc:title>Tracey Saxby</dc:title>
			</cc:Agent>	
		</dc:creator>   
		<dc:rights>
          <cc:Agent>
            <dc:title>Tracey Saxby, Integration and Application Network</dc:title>
          </cc:Agent>
        </dc:rights>
        <dc:publisher>
          <cc:Agent>
            <dc:title>Integration and Application Network</dc:title>
          </cc:Agent>
        </dc:publisher>
		<dc:identifier>http://ian.umces.edu/imagelibrary/displayimage-5291.html</dc:identifier>
        <dc:source>http://ian.umces.edu/imagelibrary/displayimage-5291.html</dc:source>
        <dc:language>en-US</dc:language>
        <dc:subject>
          <rdf:Bag>
            <rdf:li>symbol vector illustration management water resources quality availability supply demand withdrawal use groundwater surface aquifer well extraction stream river riparian infrastructure</rdf:li>
          </rdf:Bag>
        </dc:subject>
        <dc:coverage></dc:coverage>
        <dc:description>Illustration of water resource management</dc:description>
        <dc:contributor>
          <cc:Agent>
            <dc:title></dc:title>
          </cc:Agent>
        </dc:contributor>
      </cc:Work>
      <cc:License
         rdf:about="http://creativecommons.org/licenses/by-sa/3.0/">
        <cc:permits
           rdf:resource="http://creativecommons.org/ns#Reproduction" />
        <cc:permits
           rdf:resource="http://creativecommons.org/ns#Distribution" />
        <cc:requires
           rdf:resource="http://creativecommons.org/ns#Notice" />
        <cc:requires
           rdf:resource="http://creativecommons.org/ns#Attribution" />
        <cc:permits
           rdf:resource="http://creativecommons.org/ns#DerivativeWorks" />
        <cc:requires
           rdf:resource="http://creativecommons.org/ns#ShareAlike" />
      </cc:License>
    </rdf:RDF>
  </metadata>
	
<defs>
</defs>
<path fill="#FFFFFF" stroke="#000000" stroke-width="7.3892" d="M496.31,250c0,135.997-110.279,246.306-246.324,246.306
	C113.974,496.306,3.695,385.997,3.695,250c0-136.06,110.279-246.305,246.291-246.305C386.031,3.695,496.31,113.94,496.31,250z"/>
<linearGradient id="ian_symbols_1aca3849b381b5d495de7812ba91668b" gradientUnits="userSpaceOnUse" x1="146.7485" y1="379.3057" x2="353.5707" y2="172.4835">
	<stop  offset="0" style="stop-color:#7AB5D7"/>
	<stop  offset="0.1647" style="stop-color:#75B3D6"/>
	<stop  offset="0.3644" style="stop-color:#65ADD4"/>
	<stop  offset="0.5823" style="stop-color:#45A3D0"/>
	<stop  offset="0.8115" style="stop-color:#0097CC"/>
	<stop  offset="0.9887" style="stop-color:#008DC8"/>
</linearGradient>
<path fill="url(#ian_symbols_1aca3849b381b5d495de7812ba91668b)" stroke="#008DC8" stroke-width="5.2609" d="M157.962,220.924c0,0,52.162-56.963,67.162-87.544
	c8.991-16.193,25.188-64.155,25.188-64.155s12.594,44.369,26.382,65.348c19.175,36.58,61.759,82.753,61.759,82.753l1.453,1.563
	c21.744,22.499,35.127,53.119,35.127,86.88c0,69.028-55.986,125.005-125.029,125.005c-69.047,0-125.024-55.977-125.024-125.005
	c0-32.505,12.412-62.139,32.765-84.374L157.962,220.924z"/>
<linearGradient id="ian_symbols_0c961e6d0932f374c1286922d807155a" gradientUnits="userSpaceOnUse" x1="158.9897" y1="369.4219" x2="331.2132" y2="197.1984">
	<stop  offset="0.0337" style="stop-color:#ACD1EA"/>
	<stop  offset="0.5" style="stop-color:#7AB5D7"/>
	<stop  offset="0.6148" style="stop-color:#75B3D6"/>
	<stop  offset="0.7541" style="stop-color:#65ADD4"/>
	<stop  offset="0.9054" style="stop-color:#45A3D0"/>
	<stop  offset="1" style="stop-color:#1E9CCE"/>
</linearGradient>
<path fill="url(#ian_symbols_0c961e6d0932f374c1286922d807155a)" d="M167.675,237.237c0,0,43.806-47.322,56.41-72.723c7.543-13.46,21.138-53.307,21.138-53.307
	s10.593,36.869,22.158,54.293c16.135,30.37,51.878,68.739,51.878,68.739l1.212,1.294c18.271,18.68,29.509,44.119,29.509,72.188
	c0,57.354-47,103.857-104.998,103.857c-57.992,0-105.012-46.504-105.012-103.857c0-27.021,10.43-51.642,27.527-70.115
	L167.675,237.237z"/>
<linearGradient id="ian_symbols_bdde8aa4b387ffb49531c6250e7664d8" gradientUnits="userSpaceOnUse" x1="170.6265" y1="359.3525" x2="276.2248" y2="253.7542">
	<stop  offset="0.0337" style="stop-color:#ACD1EA"/>
	<stop  offset="0.6067" style="stop-color:#7AB5D7"/>
	<stop  offset="0.7333" style="stop-color:#75B3D6"/>
	<stop  offset="0.8865" style="stop-color:#65ADD4"/>
	<stop  offset="1" style="stop-color:#52A6D2"/>
</linearGradient>
<path fill="url(#ian_symbols_bdde8aa4b387ffb49531c6250e7664d8)" d="M175.945,278.296c0,0,26.863-29.018,34.598-44.59c4.623-8.24,12.96-32.674,12.96-32.674
	s6.485,22.581,13.595,33.29c9.876,18.617,31.803,42.146,31.803,42.146l0.741,0.78c11.199,11.468,18.088,27.064,18.088,44.263
	c0,35.18-28.816,63.684-64.381,63.684c-35.556,0-64.391-28.504-64.391-63.684c0-16.563,6.393-31.645,16.875-42.988L175.945,278.296z
	"/>
</svg>
