<?xml version="1.0" encoding="utf-8"?>
<!-- Svg Vector Icons : http://www.onlinewebfonts.com/icon -->
<!DOCTYPE svg PUBLIC "-//W3C//DTD SVG 1.1//EN" "http://www.w3.org/Graphics/SVG/1.1/DTD/svg11.dtd">
<svg version="1.1" xmlns="http://www.w3.org/2000/svg" xmlns:xlink="http://www.w3.org/1999/xlink" x="0px" y="0px" viewBox="0 0 1000 1000" enable-background="new 0 0 1000 1000" xml:space="preserve">
<metadata> Svg Vector Icons : http://www.onlinewebfonts.com/icon </metadata>
<g><g transform="translate(0.000000,511.000000) scale(0.100000,-0.100000)"><path d="M4819.3,4946.9c-45.8-42.8-107-168.1-155.9-314.8c-119.2-354.6-354.5-834.4-541-1106.4c-88.6-128.4-394.3-476.8-681.6-770.2C2062.4,1328.1,1680.3,805.5,1423.6-4.5c-406.5-1286.7-45.8-2717.1,932.2-3692.1c1464-1457.9,3820.5-1457.9,5287.6,0c975,971.9,1341.8,2417.6,932.2,3682.9c-91.7,281.2-363.7,852.7-452.3,956.7c-82.5,91.7-262.9,91.7-345.4,3C7618.9,768.8,5076-1679.4,5051.5-1679.4c-18.3,0-262.8,244.5-544,541c-284.2,299.5-553.2,562.4-602.1,583.8c-70.3,30.6-100.9,30.6-168.1,0c-116.2-55-180.3-183.4-143.7-281.2c18.3-42.8,324-388.2,681.6-767.1c779.4-822.2,742.7-806.9,1066.7-495.2c110,103.9,733.5,703,1381.5,1329.5l1179.8,1137l88.7-189.5c45.8-107,122.2-324,165-482.9c67.2-250.6,76.4-354.6,79.5-764.1c0-400.4-9.2-516.5-70.3-745.8c-149.7-580.7-394.3-1033.1-776.3-1439.6c-489-522.7-1088.1-858.9-1778.8-996.4c-275.1-55-947.5-55-1222.5,0c-1470.1,290.3-2549,1519-2634.6,2998.3C1717-579,1894.3,96.4,2251.9,652.7c171.2,265.9,794.7,975,1448.7,1659.6c623.5,644.9,834.4,926.1,1097.3,1454.9l207.8,418.7l162-351.5c269-577.6,443.2-816,1088.1-1479.3c317.9-330.1,657.1-684.6,751.9-788.5c149.7-158.9,192.5-189.5,278.1-189.5c131.4,0,235.4,107,235.4,238.4c0,119.2-131.4,275.1-913.9,1088.1c-816.1,852.7-1017.8,1140.1-1302.1,1855.2c-134.5,333.2-158.9,375.9-250.6,412.6C4923.2,5026.4,4907.9,5026.4,4819.3,4946.9z"/><path d="M2615.6-1602.9c-100.9-97.8-94.8-198.7,24.4-473.8c317.9-730.5,920-1244,1723.8-1473.2c470.7-134.5,1335.6-73.4,1531.2,107c94.8,85.6,91.7,244.5-9.2,342.3c-85.6,88.6-155.9,94.7-363.7,30.6c-229.2-70.3-586.8-88.7-843.6-45.8c-758,125.3-1329.5,580.7-1623,1292.8c-48.9,116.1-113.1,232.3-143.6,253.7C2829.5-1505.1,2698.1-1517.4,2615.6-1602.9z"/></g></g>
</svg>